<svg id="Art" xmlns="http://www.w3.org/2000/svg" viewBox="0 0 97.75 78.62"><path d="M64.34,32.34l3.13.06L76,23.89l.42-3.6a38.2,38.2,0,0,0-62.3,18.57C15,38.22,17,38.7,17,38.7l17-2.8s.88-1.44,1.31-1.35a21.19,21.19,0,0,1,29-2.21Z" transform="translate(-2.13 -10.61)" style="fill:#ea4335"/><path d="M87.92,38.88a38.32,38.32,0,0,0-11.54-18.6l-12,12a21.2,21.2,0,0,1,7.92,16.53V51a10.63,10.63,0,1,1,0,21.25H51l-2.12,2.14V87.12L51,89.24H72.25A27.61,27.61,0,0,0,87.92,38.88Z" transform="translate(-2.13 -10.61)" style="fill:#4285f4"/><path d="M29.75,89.24H51v-17H29.75a10.54,10.54,0,0,1-4.38-1l-3.06.94L13.8,80.73l-.74,2.88A27.47,27.47,0,0,0,29.75,89.24Z" transform="translate(-2.13 -10.61)" style="fill:#34a853"/><path d="M29.75,34A27.61,27.61,0,0,0,13.07,83.61L25.39,71.29a10.62,10.62,0,1,1,14-14L51.75,44.93A27.6,27.6,0,0,0,29.75,34Z" transform="translate(-2.13 -10.61)" style="fill:#fbbc04"/></svg>