<svg width="80px" height="60px" viewBox="0 0 800 600" xmlns="http://www.w3.org/2000/svg">

 <g>
  <title>Marker</title>
  <path d="m343,395c0,0 0,0 0,-1c0,0 0,0 0,0c0,0 0,-1 0,-1c0,-2 0,-5 0,-8c0,-2 0,-4 0,-5c0,0 0,-1 0,-1c0,-2 0,-4 -1,-6c-1,-2 -1,-3 -1,-3c0,-1 0,-1 0,-1c-1,-2 -2.34619,-4.70547 -4,-7c-1.30746,-1.814 -1.29291,-4.29291 -2,-5c-0.70709,-0.70709 -1.85272,-1.1731 -3,-2c-1.814,-1.30746 -3,-2 -5,-3c-2,-1 -4,-2 -6,-3c-2,-1 -4.41885,-1.41885 -6,-3c-1.58115,-1.58115 -2.69254,-4.186 -4,-6c-1.65381,-2.29453 -2.69254,-4.186 -4,-6c-0.8269,-1.14728 -3.14429,-2.93414 -4,-5c-1.21014,-2.92157 -2,-6 -3,-9c-1,-3 -2,-6 -2,-9c0,-4 0,-6 0,-8c0,-1 0,-1 0,-3c0,-1 0.19028,-2.88153 2,-6c1.12234,-1.93399 3,-4 4,-6c1,-2 2.41885,-3.41885 4,-5c1.58115,-1.58115 3.70547,-3.34619 6,-5c1.814,-1.30746 3.4505,-2.4505 6,-5c2.5495,-2.5495 5.81265,-4.20682 8,-6c2.78833,-2.28589 5.31,-3.33749 8,-5c2.40601,-1.487 3,-2 5,-3c2,-1 4.87857,-1.49347 8,-2c1.97418,-0.32037 6,0 8,0c2,0 5,0 6,0c3,0 4.82376,0.48627 7,1c0.97324,0.22977 2.41885,1.41885 4,3c1.58115,1.58115 2.85272,3.1731 4,4c1.814,1.30746 3.41589,2.76108 5,6c1.38934,2.84073 2.4588,4.69345 3,6c0.38269,0.92389 1,3 2,5c1,2 2.48627,4.82376 3,7c0.68927,2.91974 0.51944,6.03873 1,9c0.50653,3.12143 1,7 1,10c0,2 0.4595,6.0535 0,8c-0.51373,2.17624 -1.23462,4.15225 -2,6c-1.0824,2.61313 -3.4588,3.69345 -4,5c-0.76538,1.84775 -1,3 -2,4c-1,1 -1.87766,3.06601 -3,5c-1.80972,3.11847 -4.56351,5.70251 -7,11c-1.32138,2.87296 -3,6 -4,8c-1,2 -1.83981,5.01291 -2,6c-0.50653,3.12143 -1.78986,5.07843 -3,8c-0.85571,2.06586 -1.78986,5.07843 -3,8c-0.85571,2.06586 -2.48627,3.82376 -3,6c-0.22977,0.97324 -1.4588,2.69345 -2,4c-0.76538,1.84775 -0.4588,2.69345 -1,4c-0.76538,1.84775 -0.23462,4.15225 -1,6c-0.5412,1.30655 -1,3 -1,4c0,0 -1,1 -1,1c0,1 -0.14429,2.93414 -1,5c-1.21014,2.92157 -1.48627,4.82376 -2,7c-0.4595,1.9465 0,4 0,4c-1,2 -1,4 -1,4c-1,2 -1.87766,4.06601 -3,6c-1.80972,3.11847 -4.48627,5.82376 -5,8c-0.4595,1.9465 -1,2 -1,3c0,0 0,-1 0,-1c0,-2 0,-4 0,-6c0,-3 0,-5 0,-7c0,-2 0,-4 0,-6c0,-2 0,-4 0,-6c0,-1 0,-2 0,-4c0,-1 -0.38269,-3.07611 0,-4c0.5412,-1.30655 1,-3 1,-4c0,0 0,-1 0,-1c0,0 0,-1 0,-1c0,0 0.48627,0.17624 1,-2c0.4595,-1.9465 1,-3 1,-4c0,-1 0,-1 0,-1l0,-1l0,1l0,0" id="svg_1" stroke="#000" fill="#ccc"/>
 </g>
</svg>