<svg xmlns="http://www.w3.org/2000/svg" height="40" viewBox="0 0 20 20" width="40">
	<rect fill="none" height="40" width="40" />
	<path fill="rgb(252, 146, 53)" d="M10,3.5c2.26,0,4.1,1.84,4.1,4.1c0,1.91-0.83,3-1.98,4.51c-0.7,0.92-1.48,1.94-2.12,3.25c-0.64-1.31-1.42-2.33-2.12-3.25 C6.73,10.6,5.9,9.51,5.9,7.6C5.9,5.34,7.74,3.5,10,3.5z M10,2C6.91,2,4.4,4.51,4.4,7.6c0,4.27,3.37,5.43,4.83,9.83 C9.34,17.76,9.64,18,10,18s0.66-0.24,0.77-0.57c1.46-4.4,4.83-5.56,4.83-9.83C15.6,4.51,13.09,2,10,2L10,2z M10,9.6 c-1.1,0-2-0.9-2-2c0-1.1,0.9-2,2-2s2,0.9,2,2C12,8.7,11.1,9.6,10,9.6z" />
</svg>